<svg width="300" height="300" viewBox="0 0 300 300" fill="none" xmlns="http://www.w3.org/2000/svg">
<path fill-rule="evenodd" clip-rule="evenodd" d="M300 150C300 232.843 232.843 300 150 300C67.1573 300 0 232.843 0 150C0 67.1573 67.1573 0 150 0C232.843 0 300 67.1573 300 150ZM244.187 181.395C244.187 219.927 212.951 251.163 174.419 251.163C135.888 251.163 104.652 219.927 104.652 181.395C104.652 142.864 135.888 111.628 174.419 111.628C212.951 111.628 244.187 142.864 244.187 181.395ZM87.2087 125.581C104.548 125.581 118.604 111.525 118.604 94.1861C118.604 76.8469 104.548 62.7907 87.2087 62.7907C69.8695 62.7907 55.8134 76.8469 55.8134 94.1861C55.8134 111.525 69.8695 125.581 87.2087 125.581Z" fill="#040202"/>
</svg>
